<svg xmlns="http://www.w3.org/2000/svg" viewBox="0 0 320 240"><rect width="320" height="240" fill="#fff7ed"/><circle cx="160" cy="120" r="115" fill="#fde68a"/><polygon points="160.0,109.0 182.0,76.0 173.2,32.0 160.0,10.0 146.8,32.0 138.0,76.0" fill="#7c2d12"/><polygon points="152.2,112.2 144.4,73.3 107.1,48.4 82.2,42.2 88.4,67.1 113.3,104.4" fill="#c2410c"/><polygon points="149.0,120.0 116.0,98.0 72.0,106.8 50.0,120.0 72.0,133.2 116.0,142.0" fill="#7c2d12"/><polygon points="152.2,127.8 113.3,135.6 88.4,172.9 82.2,197.8 107.1,191.6 144.4,166.7" fill="#c2410c"/><polygon points="160.0,131.0 138.0,164.0 146.8,208.0 160.0,230.0 173.2,208.0 182.0,164.0" fill="#7c2d12"/><polygon points="167.8,127.8 175.6,166.7 212.9,191.6 237.8,197.8 231.6,172.9 206.7,135.6" fill="#c2410c"/><polygon points="171.0,120.0 204.0,142.0 248.0,133.2 270.0,120.0 248.0,106.8 204.0,98.0" fill="#7c2d12"/><polygon points="167.8,112.2 206.7,104.4 231.6,67.1 237.8,42.2 212.9,48.4 175.6,73.3" fill="#c2410c"/><circle cx="160" cy="120" r="8" fill="#1c1917"/><text x="8" y="232" font-size="10" fill="#1c1917">contoh placeholder rozet payung — ganti dengan foto lapangan</text></svg>